<?xml version="1.0" encoding="UTF-8" standalone="no"?>
<!DOCTYPE svg PUBLIC "-//W3C//DTD SVG 1.1//EN" "http://www.w3.org/Graphics/SVG/1.1/DTD/svg11.dtd">
        <svg xmlns="http://www.w3.org/2000/svg" version="1.1" 
          viewBox="0 0 200 200" width="200" height="200" 
          fill="#333" stroke="#ddd" stroke-width="4">
          <title>DSYiM</title><desc><b>[++]</b></desc>

          <g id="dsyim">
            <path id="map" d="M5,5V35 C5,35 05,45 10,50 C10,50 05,55 5,65 V95H35 C35,95 45,95 50,90 C50,90 55,95 65,95 H95V65 C95,65 95,55 90,50 C90,50 95,45 95,35 V5H65 C65,5 55,5 50,10 C50,10 45,5 35,5 H5Z"/>
            <circle id="shield" cx="50" cy="50" r="30"/>
            <path id="yi" d="M32,50H68 M44,38V62 M56,38V62"/>
          </g>

          <svg id="archive" fill="#333" x="100" y="0">
            <path id="map" d="M5,5V35 C5,35 05,45 10,50 C10,50 05,55 5,65 V95H35 C35,95 45,95 50,90 C50,90 55,95 65,95 H95V65 C95,65 95,55 90,50 C90,50 95,45 95,35 V5H65 C65,5 55,5 50,10 C50,10 45,5 35,5 H5Z"/>

            <path id="archive" d="M30,40 a10,5 0,0,0 40 0 a10,5 0,0,0 -40 0 l0,25 a 10,5 0,0,0 40 0 l0,-25"/>
            <path id="yi" d="M44,44V56 M56,44V56"/>
          </svg>

          <svg id="raspberry-pi" fill="#333" x="0" y="100">
            <path id="map" d="M5,5V35 C5,35 05,45 10,50 C10,50 05,55 5,65 V95H35 C35,95 45,95 50,90 C50,90 55,95 65,95 H95V65 C95,65 95,55 90,50 C90,50 95,45 95,35 V5H65 C65,5 55,5 50,10 C50,10 45,5 35,5 H5Z"/>
            <path id="yi" d="M35,50H65 V70 H35 V30 H65 V50 M44,44V56 M56,44V56   M35,35H25 M35,45H25 M35,55H25 M35,65H25   M65,35H75 M65,45H75 M65,55H75 M65,65H75"/>
          </svg>

          <svg id="gateway" fill="#333" x="100" y="100">
            <path id="map" d="M5,5V35 C5,35 05,45 10,50 C10,50 05,55 5,65 V95H35 C35,95 45,95 50,90 C50,90 55,95 65,95 H95V65 C95,65 95,55 90,50 C90,50 95,45 95,35 V5H65 C65,5 55,5 50,10 C50,10 45,5 35,5 H5Z"/>
            <path id="yi" d="M32,50H68 M44,38V62 M56,38V62"/>
            <line x1="20" y1="20" x2="35" y2="35"/><line x1="80" y1="20" x2="65" y2="35"/>
            <line x1="20" y1="80" x2="35" y2="65"/><line x1="80" y1="80" x2="65" y2="65"/>
          </svg>

          <view id="bas" viewBox="0   0 100 100" />
          <view id="arc" viewBox="100 0 100 100" />
          <view id="rpi" viewBox="0 100 100 100" />
          <view id="gat" viewBox="100 100 100 100" />
        </svg>