<?xml version="1.0" encoding="UTF-8" standalone="no"?>
<!DOCTYPE svg PUBLIC "-//W3C//DTD SVG 1.1//EN" "http://www.w3.org/Graphics/SVG/1.1/DTD/svg11.dtd">
<svg xmlns="http://www.w3.org/2000/svg" version="1.1" viewBox="0 0 100 100"
	height="50" width="50" fill="transparent" stroke="#fff">
	<title>DSYiM</title><desc><b>[++]</b></desc>
	<g id="dsyim" stroke-width="3">
		<path id="map" d="M5,5V35 C5,35 05,45 10,50 C10,50 05,55 5,65 V95H35 C35,95 45,95 50,90 C50,90 55,95 65,95 H95V65 C95,65 95,55 90,50 C90,50 95,45 95,35 V5H65 C65,5 55,5 50,10 C50,10 45,5 35,5 H5Z"/>
		<circle id="shield" cx="50" cy="50" r="30"/>
		<path id="yi" d="M32,50H68 M41,38V62 M50,42V58 M59,38V62"/>
	</g>
</svg>
