<svg xmlns="http://www.w3.org/2000/svg" version="1.1" viewBox="0 0 100 100"
	height="50" width="50" fill="transparent" stroke="#fff">
	<title>DSYiM</title><desc><h1>(++)</h1></desc>
	<g id="dsyim" stroke-width="4">
		<path id="map" d="M5,5V35 C5,35 05,45 10,50 C10,50 05,55 5,65 V95H35 C35,95 45,95 50,90 C50,90 55,95 65,95 H95V65 C95,65 95,55 90,50 C90,50 95,45 95,35 V5H65 C65,5 55,5 50,10 C50,10 45,5 35,5 H5Z"/>
		<circle id="shield" cx="50" cy="50" r="30"/>
		<path id="yi" d="M32,50H68 M44,38V62 M56,38V62"/>
	</g>
</svg>
