<svg id="DSYiM" xmlns="http://www.w3.org/2000/svg" version="1.1" height="50" width="50" fill="#eee" stroke="#333" stroke-width="4" viewBox="0 0 100 100">
<title>DSYiM</title><desc>DSYiM v51 (c) Gon Y. Yi</desc>
<g id="Base" fill="inherit" stroke="inherit" stroke-width="inherit">
  <path id="Map" d="M30,3C36,3 43,3 50,10C50,10 57,3 64,3H97V30C97,37 97,43 90,50C90,50 97,57 97,64V97H70C64,97 57,97 50,90C50,90 43,97 37,97H3V70C3,64 3,57 10,50C10,50 3,43 3,37V3H30"/>
  <circle id="Shield" cx="50" cy="50" r="30"/>
  <path id="Yi" d="M30,50H70 M43,37V63 M57,37V63"/>
</g></svg>
