<svg id="DSYI" viewBox="0 0 100 100" version="1.1" xmlns="http://www.w3.org/2000/svg">
<title>DeoksuYi v50</title><desc>(C) Gon Y. Yi</desc><g id="DSYIM" fill="#333" stroke="#fff" stroke-width="4">
<path id="M" d="M30,3C36,3 43,3 50,10C50,10 57,3 64,3H97V30C97,37 97,43 90,50C90,50 97,57 97,64V97H70C64,97 57,97 50,90C50,90 43,97 37,97H3V70C3,64 3,57 10,50C10,50 3,43 3,37V3H30"/>
<circle id="S" cx="50" cy="50" r="30"/><path id="Y" d="M30,50H70M43,50V37M57,50V37"/><path id="G" d="M40,63L60,63M50,57V69"/></g></svg>
