<?xml version="1.0" encoding="UTF-8" standalone="yes"?>
<!DOCTYPE svg PUBLIC "-//W3C//DTD SVG 1.1//EN" "http://www.w3.org/Graphics/SVG/1.1/DTD/svg11.dtd">
<svg id="dsyim-svg" class="logo" xmlns="http://www.w3.org/2000/svg" version="1.1" 
	viewBox="0 0 100 100" width="50" height="50">
	<title>DSYiM</title><desc><b>[++]</b></desc>
	<g id="dsyim" fill="#333" stroke="#ddd" stroke-width="4">
		<path id="map" d="M5,5V35 C5,35 05,45 10,50 C10,50 05,55 5,65 V95H35 C35,95 45,95 50,90 C50,90 55,95 65,95 H95V65 C95,65 95,55 90,50 C90,50 95,45 95,35 V5H65 C65,5 55,5 50,10 C50,10 45,5 35,5 H5Z"/>
		<circle id="shield" cx="50" cy="50" r="30"/>
		<path id="yi" d="M32,50H68 M44,38V62 M56,38V62"/>
	</g>
	<script type="text/javascript"><![CDATA[
	class GonModifier {
		filter(url) {
			let idx1 = url.indexOf("?"), idx2 = url.indexOf("#");
			let idx = (idx1<0)? idx2 : (idx2<0)? idx1 : (idx1<idx2)? idx1 : idx2;
			return url.substring(idx + 1);
		}
		modSVG(id, param, item) {
			if (this.vals[param] != null && this.vals[param].length > 0)
				document.getElementById(id)
					.setAttributeNS(null, item, this.vals[param]);
		}
		modDOM(id, param, item) {
			if (this.vals[param] != null && this.vals[param].length > 0)
				document.getElementById(id)
					.setAttribute(item, this.vals[param]);
		}
		set(url) {
			this.vals = {};
			let url2 = this.filter(url);
			let tmp = url2.replace("%23", "#")
				.replace("%26", "&")
				.replace("%3D", "=")
				.replace("%3F", "?")
				.split("&");
			for (let i in tmp) {
				let tmp2 = tmp[i].split("=");
				if (tmp2.length > 1) this.vals[tmp2[0].trim()] = tmp2[1].trim();
			}
		}
		constructor(url) {
			this.set(url);
		}
	}

	// UPDATE THE LOGO
	let gonl = new GonModifier(document.URL);
	gonl.modDOM("dsyim-svg", "size", "width");
	gonl.modDOM("dsyim-svg", "size", "height");
	gonl.modSVG("dsyim", "fill", "fill");
	gonl.modSVG("dsyim", "stroke", "stroke");

	// REMOVE JAVASCRIPT
	let rmJS = (id, tag) => {
		let fr = document.getElementById(id);
		let c = fr.getElementsByTagName(tag);
		if(c.length>0) fr.removeChild(c[0]);
	}
	rmJS("dsyim-svg", "script"); 	
]]></script></svg>
